<svg width="73" height="75" viewBox="0 0 73 75" fill="none" xmlns="http://www.w3.org/2000/svg">
<path d="M36.5 0C29.281 0 22.2241 2.18185 16.2217 6.26966C10.2193 10.3575 5.54101 16.1676 2.77841 22.9654C0.0158149 29.7631 -0.707007 37.2432 0.701354 44.4597C2.10971 51.6761 5.586 58.3049 10.6906 63.5077C15.7952 68.7104 22.2989 72.2536 29.3792 73.689C36.4595 75.1245 43.7985 74.3878 50.468 71.572C57.1375 68.7563 62.838 63.988 66.8487 57.8702C70.8593 51.7524 73 44.5598 73 37.2019C72.9895 27.3386 69.1407 17.8824 62.2979 10.908C55.455 3.93357 46.1772 0.0106679 36.5 0V0ZM39.5417 68.0454V58.9031H33.4583V68.0454C26.4813 67.3214 19.963 64.1658 15.004 59.1114C10.0449 54.0569 6.94888 47.4133 6.23847 40.3021H15.2083V34.1018H6.23847C6.94888 26.9905 10.0449 20.3469 15.004 15.2925C19.963 10.2381 26.4813 7.0825 33.4583 6.35843V15.5008H39.5417V6.35843C46.5187 7.0825 53.037 10.2381 57.996 15.2925C62.9551 20.3469 66.0511 26.9905 66.7616 34.1018H57.7917V40.3021H66.7616C66.0511 47.4133 62.9551 54.0569 57.996 59.1114C53.037 64.1658 46.5187 67.3214 39.5417 68.0454ZM39.5417 34.1018H45.625V40.3021H39.5417V46.5024H33.4583V40.3021H27.375V34.1018H33.4583V27.9014H39.5417V34.1018Z" fill="#2E6B26"/>
</svg>
