<svg width="22" height="24" viewBox="0 0 22 24" fill="none" xmlns="http://www.w3.org/2000/svg">
<path d="M11.0001 16.0003C11.4657 16.0012 11.9251 15.8937 12.3421 15.6863L14.3421 14.6863C15.3615 14.1801 16.0045 13.1384 16.0001 12.0003V9.03332C16.0036 7.89618 15.3607 6.85583 14.3421 6.35033L12.3421 5.35035C11.497 4.93035 10.5041 4.93035 9.65907 5.35035L7.65905 6.35033C6.64008 6.85555 5.99672 7.89599 6.00005 9.03332V12.0003C5.9964 13.1377 6.63929 14.1785 7.65807 14.6843L9.65808 15.6843C10.0748 15.8924 10.5343 16.0006 11.0001 16.0003ZM8.00007 12.0003V9.03332C8.00166 8.93132 8.01886 8.83011 8.05107 8.73332L10.2311 9.8233C10.7152 10.0653 11.285 10.0653 11.7691 9.8233L13.9491 8.73332C13.9813 8.83011 13.9985 8.93132 14.0001 9.03332V12.0003C14.0017 12.3797 13.7872 12.727 13.4471 12.8953L11.4471 13.8953C11.1651 14.0348 10.8341 14.0348 10.5521 13.8953L8.55211 12.8953C8.21241 12.7267 7.99829 12.3795 8.00007 12.0003ZM18.0001 22.0003H15.2911L18.778 18.7783C23.0739 14.4826 23.074 7.5178 18.7783 3.22194C14.4826 -1.07392 7.51782 -1.07396 3.22196 3.22171C-1.0739 7.51738 -1.07399 14.4823 3.22172 18.7781C3.23115 18.7875 6.70908 22.0003 6.70908 22.0003H4.00008C3.4478 22.0003 3.0001 22.448 3.0001 23.0003C3.0001 23.5526 3.4478 24.0003 4.00008 24.0003H18.0001C18.5524 24.0003 19.0001 23.5526 19.0001 23.0003C19.0001 22.448 18.5523 22.0003 18.0001 22.0003ZM4.63608 4.6363C8.14308 1.11355 13.8418 1.1008 17.3646 4.6078C20.8873 8.1148 20.9001 13.8135 17.3931 17.3363L13.4081 21.0173C12.048 22.2993 9.92218 22.2918 8.5711 21.0003L4.63608 17.3643C1.12679 13.8473 1.12683 8.15333 4.63608 4.6363Z" fill="#434343"/>
</svg>
