<svg width="181" height="44" viewBox="0 0 181 44" fill="none" xmlns="http://www.w3.org/2000/svg">
<g clip-path="url(#clip0_138_97)">
<path fill-rule="evenodd" clip-rule="evenodd" d="M2.97021 0.0598839C1.601 0.316305 0.497521 1.33736 0.108669 2.7077L0.0166886 3.03183L0.00424163 14.3014C-0.00833192 25.6995 -0.00145444 26.3376 0.145926 27.5094C0.875527 33.3106 4.55152 38.4168 9.84477 40.9818C11.6081 41.8363 13.4219 42.3583 15.4594 42.5976C16.2401 42.6894 18.2878 42.7024 19.0247 42.6203C21.7102 42.3214 24.1009 41.5214 26.2884 40.19C30.818 37.4328 33.8522 32.7604 34.5277 27.5024C34.6756 26.3514 34.6831 25.6501 34.6698 14.259C34.6572 3.47005 34.6536 3.02105 34.5783 2.75593C34.4684 2.36907 34.2077 1.81951 33.9851 1.50566C33.4681 0.776807 32.5824 0.215281 31.7088 0.062431C31.3757 0.00419393 29.775 -0.00268242 17.2998 0.000713315C5.95875 0.00381192 3.20889 0.0151876 2.97021 0.0598839ZM25.7824 11.5316C24.9242 10.6683 23.9056 9.98353 22.7845 9.51634C21.6633 9.04915 20.4618 8.80873 19.2483 8.80873C18.0347 8.80873 16.8331 9.04915 15.712 9.51634C14.5909 9.98353 13.5722 10.6683 12.7142 11.5316C11.8561 12.3948 11.1754 13.4196 10.711 14.5475C10.2467 15.6754 10.0076 16.8843 10.0076 18.1051C10.0076 19.3259 10.2467 20.5348 10.711 21.6626C11.1718 22.7818 11.8455 23.7995 12.6942 24.6585L9.17374 28.2002C10.0318 29.0634 11.0505 29.7482 12.1716 30.2154C13.2928 30.6826 14.4944 30.9231 15.7078 30.9231C16.9213 30.9231 18.123 30.6826 19.2441 30.2154C20.3652 29.7482 21.3839 29.0634 22.2419 28.2002C23.1 27.337 23.7807 26.3121 24.2451 25.1843C24.7095 24.0564 24.9484 22.8475 24.9484 21.6266C24.9484 20.4058 24.7095 19.197 24.2451 18.0691C23.7843 16.95 23.1106 15.9323 22.2619 15.0733L25.7824 11.5316Z" fill="#2E6B26"/>
<path d="M45.0522 18.8291C45.0522 19.228 45.31 19.5571 45.8255 19.8164C46.3608 20.0558 47.0052 20.2752 47.7586 20.4746C48.512 20.6542 49.2654 20.8935 50.0189 21.1928C50.7723 21.472 51.4068 21.9507 51.9223 22.6289C52.4576 23.3071 52.7252 24.1548 52.7252 25.1721C52.7252 26.708 52.1503 27.8948 51.0003 28.7325C49.8701 29.5504 48.4526 29.9593 46.7474 29.9593C43.6941 29.9593 41.6123 28.7725 40.502 26.3988L43.8329 24.5138C44.269 25.8104 45.2406 26.4586 46.7474 26.4586C48.1155 26.4586 48.7995 26.0298 48.7995 25.1721C48.7995 24.7732 48.5318 24.454 47.9966 24.2146C47.481 23.9553 46.8465 23.726 46.0932 23.5265C45.3397 23.327 44.5863 23.0777 43.8329 22.7785C43.0795 22.4793 42.4351 22.0105 41.8998 21.3722C41.3843 20.714 41.1265 19.8962 41.1265 18.9188C41.1265 17.4427 41.6618 16.2859 42.7325 15.4481C43.8229 14.5904 45.1712 14.1616 46.7772 14.1616C47.9866 14.1616 49.087 14.4408 50.0784 14.9993C51.0697 15.5379 51.8529 16.3158 52.4279 17.3331L49.1564 19.1283C48.6806 18.111 47.8875 17.6023 46.7772 17.6023C46.2815 17.6023 45.8652 17.7121 45.5281 17.9315C45.2108 18.1509 45.0522 18.4501 45.0522 18.8291Z" fill="#2E6B26"/>
<path d="M61.4723 29.9593C59.2321 29.9593 57.3584 29.2013 55.8516 27.6854C54.3646 26.1694 53.6211 24.2945 53.6211 22.0604C53.6211 19.8264 54.3646 17.9514 55.8516 16.4355C57.3584 14.9196 59.2321 14.1616 61.4723 14.1616C62.9197 14.1616 64.2386 14.5106 65.4278 15.2088C66.6176 15.9069 67.5195 16.8444 68.1343 18.0213L64.8335 19.966C64.5361 19.3477 64.0799 18.859 63.4651 18.5C62.8703 18.1409 62.1963 17.9614 61.4428 17.9614C60.2929 17.9614 59.3412 18.3504 58.5877 19.1283C57.8343 19.8862 57.4576 20.8636 57.4576 22.0604C57.4576 23.2373 57.8343 24.2146 58.5877 24.9925C59.3412 25.7505 60.2929 26.1295 61.4428 26.1295C62.2162 26.1295 62.8998 25.96 63.4947 25.6209C64.1095 25.2619 64.5656 24.7732 64.8631 24.1548L68.1941 26.0697C67.5395 27.2465 66.6176 28.194 65.4278 28.9121C64.2386 29.6102 62.9197 29.9593 61.4723 29.9593Z" fill="#2E6B26"/>
<path d="M77.896 14.1615C79.5214 14.1615 80.8602 14.7101 81.9106 15.8071C82.9815 16.9042 83.5167 18.4201 83.5167 20.355V29.5404H79.6801V20.8337C79.6801 19.8363 79.4128 19.0784 78.877 18.5598C78.3419 18.0212 77.6281 17.7519 76.7358 17.7519C75.7445 17.7519 74.9517 18.0611 74.3569 18.6794C73.762 19.2978 73.4645 20.2253 73.4645 21.462V29.5404H69.6279V8.59644H73.4645V16.2559C74.3961 14.8597 75.8736 14.1615 77.896 14.1615Z" fill="#2E6B26"/>
<path d="M94.1976 11.8876C92.0956 11.728 91.0452 12.5757 91.0452 14.4308V14.5804H94.1976V18.2905H91.0452V29.5404H87.2086V18.2905H85.0674V14.5804H87.2086V14.4308C87.2086 12.3164 87.7932 10.7107 88.9631 9.61369C90.133 8.51658 91.8778 8.03786 94.1976 8.17753V11.8876Z" fill="#2E6B26"/>
<path d="M107.479 27.6854C105.952 29.2013 104.088 29.9593 101.888 29.9593C99.687 29.9593 97.8233 29.2013 96.2962 27.6854C94.7897 26.1495 94.0361 24.2745 94.0361 22.0604C94.0361 19.8464 94.7897 17.9813 96.2962 16.4654C97.8233 14.9295 99.687 14.1616 101.888 14.1616C104.088 14.1616 105.952 14.9295 107.479 16.4654C109.005 17.9813 109.769 19.8464 109.769 22.0604C109.769 24.2745 109.005 26.1495 107.479 27.6854ZM99.0028 25.0225C99.7763 25.8004 100.738 26.1894 101.888 26.1894C103.038 26.1894 103.999 25.8004 104.772 25.0225C105.546 24.2446 105.932 23.2572 105.932 22.0604C105.932 20.8636 105.546 19.8763 104.772 19.0983C103.999 18.3204 103.038 17.9315 101.888 17.9315C100.738 17.9315 99.7763 18.3204 99.0028 19.0983C98.2492 19.8763 97.8727 20.8636 97.8727 22.0604C97.8727 23.2572 98.2492 24.2446 99.0028 25.0225Z" fill="#2E6B26"/>
<path d="M115.71 17.1535C116.066 16.1961 116.651 15.478 117.464 14.9993C118.297 14.5206 119.219 14.2812 120.23 14.2812V18.5897C119.06 18.45 118.01 18.6894 117.077 19.3078C116.166 19.9261 115.71 20.9533 115.71 22.3895V29.5404H111.873V14.5804H115.71V17.1535Z" fill="#2E6B26"/>
<path d="M132.599 8.59644H136.436V29.5404H132.599V27.7751C131.469 29.2312 129.863 29.9593 127.781 29.9593C125.778 29.9593 124.064 29.2013 122.636 27.6854C121.229 26.1495 120.524 24.2745 120.524 22.0604C120.524 19.8464 121.229 17.9813 122.636 16.4654C124.064 14.9295 125.778 14.1615 127.781 14.1615C129.863 14.1615 131.469 14.8896 132.599 16.3457V8.59644ZM125.521 25.1122C126.314 25.8902 127.305 26.2791 128.495 26.2791C129.684 26.2791 130.666 25.8902 131.439 25.1122C132.212 24.3144 132.599 23.2971 132.599 22.0604C132.599 20.8237 132.212 19.8164 131.439 19.0385C130.666 18.2406 129.684 17.8417 128.495 17.8417C127.305 17.8417 126.314 18.2406 125.521 19.0385C124.748 19.8164 124.361 20.8237 124.361 22.0604C124.361 23.2971 124.748 24.3144 125.521 25.1122Z" fill="#2E6B26"/>
<path d="M142.591 23.6462C143.107 25.5212 144.505 26.4586 146.785 26.4586C148.252 26.4586 149.362 25.96 150.116 24.9627L153.208 26.7579C151.742 28.8921 149.58 29.9593 146.725 29.9593C144.266 29.9593 142.294 29.2113 140.807 27.7153C139.319 26.2193 138.576 24.3343 138.576 22.0604C138.576 19.8064 139.31 17.9315 140.777 16.4355C142.244 14.9196 144.127 14.1616 146.427 14.1616C148.608 14.1616 150.403 14.9196 151.811 16.4355C153.238 17.9514 153.952 19.8264 153.952 22.0604C153.952 22.5591 153.903 23.0877 153.803 23.6462H142.591ZM142.532 20.6542H150.116C149.897 19.6369 149.441 18.8789 148.747 18.3803C148.073 17.8816 147.3 17.6322 146.427 17.6322C145.397 17.6322 144.544 17.9016 143.87 18.4401C143.196 18.9587 142.749 19.6967 142.532 20.6542Z" fill="#2E6B26"/>
<path d="M165.239 14.5804H169.462L163.812 29.5404H159.439L153.789 14.5804H158.012L161.611 25.0524L165.239 14.5804Z" fill="#2E6B26"/>
<path d="M173.327 18.8291C173.327 19.228 173.584 19.5571 174.1 19.8164C174.635 20.0558 175.28 20.2752 176.033 20.4746C176.787 20.6542 177.54 20.8935 178.293 21.1928C179.047 21.472 179.682 21.9507 180.197 22.6289C180.732 23.3071 181 24.1548 181 25.1721C181 26.708 180.425 27.8948 179.275 28.7325C178.145 29.5504 176.727 29.9593 175.022 29.9593C171.969 29.9593 169.887 28.7725 168.776 26.3988L172.107 24.5138C172.544 25.8104 173.515 26.4586 175.022 26.4586C176.39 26.4586 177.074 26.0298 177.074 25.1721C177.074 24.7732 176.807 24.454 176.271 24.2146C175.756 23.9553 175.121 23.726 174.368 23.5265C173.615 23.327 172.861 23.0777 172.107 22.7785C171.354 22.4793 170.709 22.0105 170.174 21.3722C169.659 20.714 169.401 19.8962 169.401 18.9188C169.401 17.4427 169.937 16.2859 171.007 15.4481C172.098 14.5904 173.446 14.1616 175.052 14.1616C176.261 14.1616 177.362 14.4408 178.353 14.9993C179.344 15.5379 180.127 16.3158 180.702 17.3331L177.431 19.1283C176.955 18.111 176.162 17.6023 175.052 17.6023C174.556 17.6023 174.14 17.7121 173.803 17.9315C173.485 18.1509 173.327 18.4501 173.327 18.8291Z" fill="#2E6B26"/>
</g>
<defs>
<clipPath id="clip0_138_97">
<rect width="181" height="43.0952" fill="white"/>
</clipPath>
</defs>
</svg>
