<svg width="1732" height="409" viewBox="0 0 1732 409" fill="none" xmlns="http://www.w3.org/2000/svg">
<path fill-rule="evenodd" clip-rule="evenodd" d="M28.587 0.838682C15.409 3.29248 4.78844 13.0634 1.0459 26.1769L0.160621 29.2786L0.040824 137.122C-0.0801913 246.196 -0.0139984 252.302 1.40448 263.515C8.42661 319.03 43.8065 367.893 94.7519 392.439C111.724 400.616 129.18 405.611 148.79 407.902C156.304 408.78 176.012 408.904 183.105 408.119C208.952 405.258 231.962 397.603 253.015 384.862C296.611 358.477 325.814 313.765 332.315 263.448C333.738 252.434 333.81 245.723 333.682 136.716C333.561 33.4721 333.526 29.1754 332.802 26.6383C331.745 22.9363 329.235 17.6773 327.092 14.674C322.116 7.69925 313.592 2.32575 305.184 0.863053C301.978 0.305759 286.573 0.239956 166.503 0.272451C57.3505 0.302103 30.8843 0.410962 28.587 0.838682ZM153.63 90.2365C226.473 108.622 249.27 114.526 250.753 115.393C252.763 116.567 255.06 119.044 256.185 121.25C258.306 125.407 258.219 121.607 258.226 210.616L258.232 293.25L257.37 295.029C256.852 296.101 255.854 297.243 254.862 297.899L253.216 298.99L228.087 299.1C204.132 299.206 202.877 299.175 201.211 298.438C199.08 297.495 197.504 295.52 196.945 293.092C196.666 291.883 196.523 269.793 196.516 227.281C196.505 156.372 196.694 161.372 193.798 155.401C191.682 151.04 186.595 146.001 182.003 143.717C177.409 141.432 173.457 140.606 168.521 140.896C162.359 141.259 161.15 141.784 146.684 150.378C141.282 153.588 136.759 156.213 136.633 156.213C136.507 156.213 136.408 142.184 136.413 125.038C136.422 95.5138 136.462 93.7748 137.178 92.198C138.25 89.838 140.956 88.1475 143.884 88.0098C144.312 87.9899 148.698 88.9915 153.63 90.2365ZM135.629 294.939C135.122 296.086 134.25 297.095 133.119 297.843L131.387 298.99H105.947H80.5075L78.8603 297.899C77.8683 297.243 76.8709 296.102 76.3519 295.029C75.4975 293.264 75.4906 293.002 75.4938 262.812C75.4959 244.645 75.6656 230.901 75.9146 228.719C78.3284 207.568 89.1535 188.417 105.761 175.914C107.534 174.58 115.108 169.71 122.593 165.093L136.201 156.698L136.304 224.939C136.404 291.401 136.386 293.226 135.629 294.939Z" fill="white"/>
<path d="M491.471 140.196C505.503 140.196 517.054 144.902 526.123 154.313C535.363 163.725 539.984 176.73 539.984 193.329V272.129H506.872V197.435C506.872 188.879 504.562 182.377 499.942 177.928C495.322 173.308 489.161 170.997 481.461 170.997C472.905 170.997 466.06 173.65 460.927 178.955C455.793 184.259 453.226 192.216 453.226 202.826V272.129H420.115V143.79H453.226V158.164C461.269 146.185 474.017 140.196 491.471 140.196ZM596.234 221.563C600.684 237.648 612.747 245.691 632.426 245.691C645.089 245.691 654.672 241.413 661.174 232.857L687.869 248.258C675.206 266.568 656.554 275.722 631.913 275.722C610.694 275.722 593.668 269.305 580.834 256.472C568 243.638 561.583 227.467 561.583 207.959C561.583 188.623 567.914 172.538 580.577 159.704C593.24 146.699 609.496 140.196 629.346 140.196C648.169 140.196 663.655 146.699 675.805 159.704C688.125 172.709 694.286 188.794 694.286 207.959C694.286 212.237 693.858 216.772 693.002 221.563H596.234ZM595.721 195.895H661.174C659.292 187.168 655.356 180.666 649.367 176.388C643.549 172.11 636.875 169.971 629.346 169.971C620.448 169.971 613.09 172.281 607.272 176.901C601.454 181.35 597.603 187.682 595.721 195.895ZM856.898 143.79H892.063L851.251 272.129H819.679L796.065 194.355L772.45 272.129H740.879L700.067 143.79H735.232L757.05 222.59L780.407 143.79H811.722L835.08 222.847L856.898 143.79ZM1002.18 92.4538H1035.29V272.129H1002.18V256.985C992.424 269.477 978.563 275.722 960.596 275.722C943.313 275.722 928.511 269.22 916.19 256.215C904.041 243.039 897.966 226.953 897.966 207.959C897.966 188.965 904.041 172.965 916.19 159.96C928.511 146.784 943.313 140.196 960.596 140.196C978.563 140.196 992.424 146.442 1002.18 158.934V92.4538ZM941.088 234.14C947.933 240.814 956.489 244.151 966.756 244.151C977.023 244.151 985.494 240.814 992.167 234.14C998.841 227.296 1002.18 218.569 1002.18 207.959C1002.18 197.35 998.841 188.708 992.167 182.035C985.494 175.19 977.023 171.768 966.756 171.768C956.489 171.768 947.933 175.19 941.088 182.035C934.415 188.708 931.078 197.35 931.078 207.959C931.078 218.569 934.415 227.296 941.088 234.14ZM1093.55 221.563C1098 237.648 1110.06 245.691 1129.74 245.691C1142.4 245.691 1151.99 241.413 1158.49 232.857L1185.18 248.258C1172.52 266.568 1153.87 275.722 1129.23 275.722C1108.01 275.722 1090.98 269.305 1078.15 256.472C1065.31 243.638 1058.9 227.467 1058.9 207.959C1058.9 188.623 1065.23 172.538 1077.89 159.704C1090.55 146.699 1106.81 140.196 1126.66 140.196C1145.48 140.196 1160.97 146.699 1173.12 159.704C1185.44 172.709 1191.6 188.794 1191.6 207.959C1191.6 212.237 1191.17 216.772 1190.32 221.563H1093.55ZM1093.04 195.895H1158.49C1156.61 187.168 1152.67 180.666 1146.68 176.388C1140.86 172.11 1134.19 169.971 1126.66 169.971C1117.76 169.971 1110.4 172.281 1104.59 176.901C1098.77 181.35 1094.92 187.682 1093.04 195.895ZM1294.15 143.79H1330.6L1281.83 272.129H1244.1L1195.33 143.79H1231.78L1262.84 233.627L1294.15 143.79ZM1369.09 180.238C1369.09 183.66 1371.31 186.484 1375.76 188.708C1380.38 190.762 1385.94 192.644 1392.45 194.355C1398.95 195.895 1405.45 197.949 1411.95 200.516C1418.46 202.911 1423.93 207.018 1428.38 212.836C1433 218.654 1435.31 225.927 1435.31 234.654C1435.31 247.83 1430.35 258.012 1420.42 265.199C1410.67 272.214 1398.43 275.722 1383.72 275.722C1357.37 275.722 1339.4 265.541 1329.82 245.178L1358.56 229.007C1362.33 240.13 1370.71 245.691 1383.72 245.691C1395.53 245.691 1401.43 242.012 1401.43 234.654C1401.43 231.231 1399.12 228.494 1394.5 226.44C1390.05 224.216 1384.57 222.248 1378.07 220.536C1371.57 218.825 1365.07 216.686 1358.56 214.12C1352.06 211.553 1346.5 207.531 1341.88 202.056C1337.43 196.409 1335.21 189.393 1335.21 181.008C1335.21 168.345 1339.83 158.42 1349.07 151.233C1358.48 143.875 1370.11 140.196 1383.98 140.196C1394.41 140.196 1403.91 142.592 1412.47 147.383C1421.02 152.003 1427.78 158.677 1432.74 167.404L1404.51 182.805C1400.4 174.078 1393.56 169.714 1383.98 169.714C1379.7 169.714 1376.1 170.655 1373.19 172.538C1370.46 174.42 1369.09 176.987 1369.09 180.238ZM1515.94 275.722C1496.6 275.722 1480.43 269.22 1467.43 256.215C1454.59 243.21 1448.18 227.125 1448.18 207.959C1448.18 188.794 1454.59 172.709 1467.43 159.704C1480.43 146.699 1496.6 140.196 1515.94 140.196C1528.43 140.196 1539.81 143.191 1550.08 149.18C1560.35 155.169 1568.13 163.212 1573.44 173.308L1544.95 189.992C1542.38 184.687 1538.44 180.495 1533.14 177.414C1528 174.334 1522.19 172.794 1515.68 172.794C1505.76 172.794 1497.55 176.131 1491.04 182.805C1484.54 189.307 1481.29 197.692 1481.29 207.959C1481.29 218.055 1484.54 226.44 1491.04 233.114C1497.55 239.616 1505.76 242.868 1515.68 242.868C1522.36 242.868 1528.26 241.413 1533.39 238.504C1538.7 235.424 1542.63 231.231 1545.2 225.927L1573.95 242.354C1568.3 252.45 1560.35 260.578 1550.08 266.739C1539.81 272.728 1528.43 275.722 1515.94 275.722ZM1662.82 140.196C1676.85 140.196 1688.4 144.902 1697.47 154.313C1706.71 163.725 1711.33 176.73 1711.33 193.329V272.129H1678.22V197.435C1678.22 188.879 1675.91 182.377 1671.29 177.928C1666.67 173.308 1660.51 170.997 1652.81 170.997C1644.25 170.997 1637.41 173.65 1632.27 178.955C1627.14 184.259 1624.57 192.216 1624.57 202.826V272.129H1591.46V92.4538H1624.57V158.164C1632.62 146.185 1645.36 140.196 1662.82 140.196Z" fill="white"/>
</svg>
