<svg width="4794" height="1119" viewBox="0 0 4794 1119" fill="none" xmlns="http://www.w3.org/2000/svg">
<path fill-rule="evenodd" clip-rule="evenodd" d="M78.2935 1.56905C42.2017 8.28762 13.1145 35.0407 2.86449 70.9458L0.439905 79.4383L0.111808 374.718C-0.219626 673.364 -0.0383384 690.082 3.84655 720.785C23.0786 872.786 119.976 1006.57 259.504 1073.78C305.986 1096.17 353.795 1109.85 407.503 1116.12C428.083 1118.52 482.059 1118.86 501.483 1116.71C572.273 1108.88 635.291 1087.92 692.951 1053.04C812.35 980.793 892.331 858.37 910.137 720.6C914.034 690.444 914.232 672.069 913.88 373.605C913.549 90.9203 913.454 79.1558 911.47 72.2092C908.574 62.073 901.701 47.6738 895.833 39.4504C882.205 20.3535 858.859 5.64068 835.83 1.63578C827.05 0.109887 784.858 -0.0702832 456.016 0.0186899C157.07 0.0998778 84.5852 0.397938 78.2935 1.56905ZM679.612 302.143C656.994 279.525 630.142 261.583 600.589 249.342C571.037 237.101 539.363 230.801 507.376 230.801C475.389 230.801 443.715 237.101 414.162 249.342C384.61 261.583 357.758 279.525 335.14 302.143C312.521 324.762 294.579 351.614 282.338 381.166C270.097 410.718 263.797 442.392 263.797 474.379C263.797 506.367 270.097 538.041 282.338 567.593C294.484 596.916 312.243 623.58 334.614 646.088L241.816 738.886C264.435 761.504 291.287 779.446 320.839 791.687C350.391 803.928 382.065 810.228 414.053 810.228C446.04 810.228 477.714 803.928 507.266 791.687C536.818 779.446 563.67 761.504 586.289 738.886C608.907 716.267 626.849 689.416 639.09 659.863C651.331 630.311 657.631 598.637 657.631 566.65C657.631 534.662 651.331 502.989 639.09 473.436C626.944 444.113 609.185 417.449 586.814 394.941L679.612 302.143Z" fill="#2E6B26"/>
<path d="M1187.54 493.348C1187.54 503.8 1194.34 512.423 1207.92 519.218C1222.04 525.489 1239.02 531.238 1258.88 536.465C1278.74 541.168 1298.6 547.44 1318.46 555.279C1338.32 562.596 1355.05 575.139 1368.63 592.909C1382.74 610.678 1389.8 632.89 1389.8 659.544C1389.8 699.786 1374.64 730.883 1344.33 752.833C1314.54 774.261 1277.17 784.975 1232.23 784.975C1151.74 784.975 1096.87 753.879 1067.6 691.686L1155.4 642.297C1166.9 676.268 1192.51 693.254 1232.23 693.254C1268.29 693.254 1286.32 682.017 1286.32 659.544C1286.32 649.091 1279.26 640.729 1265.15 634.458C1251.56 627.663 1234.84 621.653 1214.98 616.427C1195.12 611.201 1175.26 604.668 1155.4 596.828C1135.54 588.989 1118.56 576.707 1104.44 559.983C1090.86 542.736 1084.06 521.308 1084.06 495.699C1084.06 457.025 1098.17 426.712 1126.39 404.762C1155.14 382.289 1190.68 371.052 1233.01 371.052C1264.89 371.052 1293.9 378.369 1320.03 393.002C1346.16 407.113 1366.8 427.496 1381.96 454.15L1295.73 501.187C1283.18 474.533 1262.28 461.206 1233.01 461.206C1219.95 461.206 1208.97 464.08 1200.09 469.829C1191.72 475.578 1187.54 483.418 1187.54 493.348ZM1620.38 784.975C1561.32 784.975 1511.93 765.115 1472.21 725.395C1433.02 685.675 1413.42 636.548 1413.42 578.014C1413.42 519.479 1433.02 470.352 1472.21 430.632C1511.93 390.912 1561.32 371.052 1620.38 371.052C1658.53 371.052 1693.29 380.198 1724.64 398.49C1756 416.782 1779.78 441.346 1795.98 472.181L1708.96 523.137C1701.12 506.936 1689.1 494.131 1672.9 484.724C1657.22 475.317 1639.45 470.613 1619.59 470.613C1589.28 470.613 1564.2 480.804 1544.34 501.187C1524.48 521.047 1514.55 546.656 1514.55 578.014C1514.55 608.849 1524.48 634.458 1544.34 654.84C1564.2 674.7 1589.28 684.63 1619.59 684.63C1639.98 684.63 1658.01 680.188 1673.69 671.303C1689.89 661.896 1701.91 649.091 1709.75 632.89L1797.55 683.062C1780.3 713.898 1756 738.722 1724.64 757.537C1693.29 775.829 1658.53 784.975 1620.38 784.975ZM2053.29 371.052C2096.15 371.052 2131.43 385.424 2159.13 414.169C2187.35 442.914 2201.46 482.634 2201.46 533.329V774H2100.33V545.872C2100.33 519.74 2093.27 499.88 2079.16 486.292C2065.05 472.181 2046.24 465.125 2022.72 465.125C1996.59 465.125 1975.68 473.226 1960 489.428C1944.33 505.629 1936.49 529.932 1936.49 562.335V774H1835.36V225.238H1936.49V425.928C1961.05 389.344 1999.99 371.052 2053.29 371.052ZM2483.01 311.472C2427.61 307.291 2399.91 329.503 2399.91 378.108V382.027H2483.01V479.236H2399.91V774H2298.78V479.236H2242.34V382.027H2298.78V378.108C2298.78 322.709 2314.2 280.637 2345.04 251.892C2375.87 223.148 2421.86 210.604 2483.01 214.263V311.472ZM2833.1 725.395C2792.86 765.115 2743.73 784.975 2685.72 784.975C2627.71 784.975 2578.58 765.115 2538.34 725.395C2498.62 685.153 2478.76 636.026 2478.76 578.014C2478.76 520.002 2498.62 471.136 2538.34 431.416C2578.58 391.173 2627.71 371.052 2685.72 371.052C2743.73 371.052 2792.86 391.173 2833.1 431.416C2873.34 471.136 2893.46 520.002 2893.46 578.014C2893.46 636.026 2873.34 685.153 2833.1 725.395ZM2609.67 655.624C2630.06 676.007 2655.4 686.198 2685.72 686.198C2716.03 686.198 2741.38 676.007 2761.76 655.624C2782.14 635.242 2792.33 609.371 2792.33 578.014C2792.33 546.656 2782.14 520.786 2761.76 500.403C2741.38 480.02 2716.03 469.829 2685.72 469.829C2655.4 469.829 2630.06 480.02 2609.67 500.403C2589.81 520.786 2579.88 546.656 2579.88 578.014C2579.88 609.371 2589.81 635.242 2609.67 655.624ZM3050.06 449.447C3059.46 424.36 3074.88 405.546 3096.31 393.002C3118.26 380.459 3142.56 374.188 3169.22 374.188V487.076C3138.38 483.418 3110.68 489.689 3086.12 505.891C3062.08 522.092 3050.06 549.008 3050.06 586.637V774H2948.93V382.027H3050.06V449.447ZM3495.25 225.238H3596.38V774H3495.25V727.747C3465.46 765.899 3423.13 784.975 3368.25 784.975C3315.47 784.975 3270.26 765.115 3232.63 725.395C3195.52 685.153 3176.97 636.026 3176.97 578.014C3176.97 520.002 3195.52 471.136 3232.63 431.416C3270.26 391.173 3315.47 371.052 3368.25 371.052C3423.13 371.052 3465.46 390.128 3495.25 428.28V225.238ZM3308.67 657.976C3329.58 678.359 3355.71 688.55 3387.07 688.55C3418.42 688.55 3444.29 678.359 3464.68 657.976C3485.06 637.071 3495.25 610.417 3495.25 578.014C3495.25 545.611 3485.06 519.218 3464.68 498.835C3444.29 477.93 3418.42 467.477 3387.07 467.477C3355.71 467.477 3329.58 477.93 3308.67 498.835C3288.29 519.218 3278.1 545.611 3278.1 578.014C3278.1 610.417 3288.29 637.071 3308.67 657.976ZM3758.64 619.563C3772.23 668.69 3809.07 693.254 3869.17 693.254C3907.85 693.254 3937.12 680.188 3956.98 654.056L4038.51 701.093C3999.83 757.015 3942.87 784.975 3867.61 784.975C3802.8 784.975 3750.8 765.377 3711.6 726.179C3672.4 686.982 3652.81 637.593 3652.81 578.014C3652.81 518.956 3672.14 469.829 3710.82 430.632C3749.49 390.912 3799.14 371.052 3859.77 371.052C3917.26 371.052 3964.55 390.912 4001.66 430.632C4039.29 470.352 4058.11 519.479 4058.11 578.014C4058.11 591.079 4056.8 604.929 4054.19 619.563H3758.64ZM3757.07 541.168H3956.98C3951.23 514.514 3939.21 494.654 3920.92 481.588C3903.15 468.523 3882.76 461.99 3859.77 461.99C3832.59 461.99 3810.12 469.045 3792.35 483.156C3774.58 496.745 3762.82 516.082 3757.07 541.168ZM4355.63 382.027H4466.95L4318 774H4202.76L4053.81 382.027H4165.13L4259.99 656.408L4355.63 382.027ZM4568.83 493.348C4568.83 503.8 4575.62 512.423 4589.21 519.218C4603.32 525.489 4620.31 531.238 4640.17 536.465C4660.03 541.168 4679.89 547.44 4699.75 555.279C4719.61 562.596 4736.33 575.139 4749.92 592.909C4764.03 610.678 4771.09 632.89 4771.09 659.544C4771.09 699.786 4755.93 730.883 4725.62 752.833C4695.83 774.261 4658.46 784.975 4613.51 784.975C4533.03 784.975 4478.15 753.879 4448.88 691.686L4536.69 642.297C4548.18 676.268 4573.79 693.254 4613.51 693.254C4649.57 693.254 4667.61 682.017 4667.61 659.544C4667.61 649.091 4660.55 640.729 4646.44 634.458C4632.85 627.663 4616.13 621.653 4596.27 616.427C4576.41 611.201 4556.55 604.668 4536.69 596.828C4516.83 588.989 4499.84 576.707 4485.73 559.983C4472.14 542.736 4465.35 521.308 4465.35 495.699C4465.35 457.025 4479.46 426.712 4507.68 404.762C4536.42 382.289 4571.96 371.052 4614.3 371.052C4646.18 371.052 4675.18 378.369 4701.31 393.002C4727.45 407.113 4748.09 427.496 4763.25 454.15L4677.01 501.187C4664.47 474.533 4643.56 461.206 4614.3 461.206C4601.23 461.206 4590.26 464.08 4581.37 469.829C4573.01 475.578 4568.83 483.418 4568.83 493.348Z" fill="#2E6B26"/>
</svg>
